# xmcd CD database file
#
# Track frame offsets:
#	150
#	21835
#	36317
#	53648
#	72414
#	98425
#	112327
#	135587
#	155621
#	174619
#	204428
#	223543
#	244015
#
# Disc length: 3552 seconds
#
# Revision: 0
# Processed by: cddbd v1.5.2PL0 Copyright (c) Steve Scherf et al.
# Submitted via: CDex 1.51
#
DISCID=b70dde0d
DTITLE=Ty Curtis Band - Down On My Luck
DYEAR=2008
DGENRE=Blues
TTITLE0=Cherry City Boogie
TTITLE1=Been Down That Road
TTITLE2=Bluer than blue
TTITLE3=Give It Up
TTITLE4=Down On My Luck
TTITLE5=Coming Back Baby
TTITLE6=I'm Going Away
TTITLE7=How Can I Get Thru
TTITLE8=What Ya Gonna do
TTITLE9=Lose Yourself
TTITLE10=Treat Me This Way
TTITLE11=Done Me So Wrong
TTITLE12=Out In The Country
EXTD=YEAR: 2008
EXTT0=
EXTT1=
EXTT2=
EXTT3=
EXTT4=
EXTT5=
EXTT6=
EXTT7=
EXTT8=
EXTT9=
EXTT10=
EXTT11=
EXTT12=
PLAYORDER=
